<svg xmlns="http://www.w3.org/2000/svg" viewBox="0 0 980 560" font-family="Arial, Helvetica, sans-serif">
  <rect width="980" height="560" fill="#FFFFFF"/>
  <text x="490" y="28" text-anchor="middle" font-size="17" font-weight="bold" fill="#0B1F3A">Tableau Kanban — Sprint de 3 jours</text>
  <text x="490" y="46" text-anchor="middle" font-size="11.5" fill="#5C6B7C">État en fin de Jour 3 (exemple représentatif)</text>

  <!-- columns -->
  <g>
    <rect x="30"  y="66" width="220" height="470" rx="8" fill="#F4F6F9" stroke="#CCD5DF"/>
    <rect x="265" y="66" width="220" height="470" rx="8" fill="#F4F6F9" stroke="#CCD5DF"/>
    <rect x="500" y="66" width="220" height="470" rx="8" fill="#F4F6F9" stroke="#CCD5DF"/>
    <rect x="735" y="66" width="215" height="470" rx="8" fill="#F4F6F9" stroke="#CCD5DF"/>
  </g>
  <g font-size="12" font-weight="bold" fill="#FFFFFF" text-anchor="middle">
    <rect x="30"  y="66" width="220" height="30" rx="8" fill="#5C6B7C"/><text x="140" y="86">À FAIRE (1)</text>
    <rect x="265" y="66" width="220" height="30" rx="8" fill="#1652F0"/><text x="375" y="86">EN COURS (2)</text>
    <rect x="500" y="66" width="220" height="30" rx="8" fill="#C8922A"/><text x="610" y="86">À TESTER (1)</text>
    <rect x="735" y="66" width="215" height="30" rx="8" fill="#1FA971"/><text x="842" y="86">TERMINÉ (9)</text>
  </g>

  <!-- card template via reusable groups -->
  <!-- TODO column -->
  <g>
    <rect x="42" y="106" width="196" height="64" rx="6" fill="#FFFFFF" stroke="#CCD5DF"/>
    <text x="52" y="124" font-size="10.5" font-weight="bold" fill="#0B1F3A">Tests finaux &amp; relecture</text>
    <text x="52" y="140" font-size="9.5" fill="#5C6B7C">Tech · J3 après-midi</text>
    <rect x="52" y="148" width="60" height="14" rx="7" fill="#EAF0FF"/><text x="82" y="158" text-anchor="middle" font-size="8" fill="#1652F0">Tous</text>
  </g>

  <!-- IN PROGRESS column -->
  <g>
    <rect x="277" y="106" width="196" height="70" rx="6" fill="#FFFFFF" stroke="#CCD5DF"/>
    <text x="287" y="124" font-size="10.5" font-weight="bold" fill="#0B1F3A">Tableau final (bracket)</text>
    <text x="287" y="140" font-size="9.5" fill="#5C6B7C">Front · 3h estimées</text>
    <rect x="287" y="150" width="46" height="14" rx="7" fill="#FDEEDC"/><text x="310" y="160" text-anchor="middle" font-size="8" fill="#C8922A">Ryan</text>
  </g>
  <g>
    <rect x="277" y="186" width="196" height="70" rx="6" fill="#FFFFFF" stroke="#CCD5DF"/>
    <text x="287" y="204" font-size="10.5" font-weight="bold" fill="#0B1F3A">Rédaction CDC technique</text>
    <text x="287" y="220" font-size="9.5" fill="#5C6B7C">Conception · 2h estimées</text>
    <rect x="287" y="230" width="46" height="14" rx="7" fill="#E7F4EE"/><text x="310" y="240" text-anchor="middle" font-size="8" fill="#1FA971">Islem</text>
  </g>

  <!-- TO TEST column -->
  <g>
    <rect x="512" y="106" width="196" height="70" rx="6" fill="#FFFFFF" stroke="#CCD5DF"/>
    <text x="522" y="124" font-size="10.5" font-weight="bold" fill="#0B1F3A">Moteur temps réel (polling)</text>
    <text x="522" y="140" font-size="9.5" fill="#5C6B7C">Back/Front · à valider</text>
    <rect x="522" y="150" width="46" height="14" rx="7" fill="#E7F4EE"/><text x="545" y="160" text-anchor="middle" font-size="8" fill="#1FA971">Islem</text>
  </g>

  <!-- DONE column (9 small cards) -->
  <g font-size="9.5" fill="#0B1F3A">
    <rect x="747" y="106" width="190" height="36" rx="6" fill="#FFFFFF" stroke="#CCD5DF"/><text x="757" y="128">Analyse des besoins</text>
    <rect x="747" y="148" width="190" height="36" rx="6" fill="#FFFFFF" stroke="#CCD5DF"/><text x="757" y="170">Cahier des charges fonctionnel</text>
    <rect x="747" y="190" width="190" height="36" rx="6" fill="#FFFFFF" stroke="#CCD5DF"/><text x="757" y="212">Diagrammes UML</text>
    <rect x="747" y="232" width="190" height="36" rx="6" fill="#FFFFFF" stroke="#CCD5DF"/><text x="757" y="254">Modèle MERISE (BDD)</text>
    <rect x="747" y="274" width="190" height="36" rx="6" fill="#FFFFFF" stroke="#CCD5DF"/><text x="757" y="296">Charte graphique &amp; wireframes</text>
    <rect x="747" y="316" width="190" height="36" rx="6" fill="#FFFFFF" stroke="#CCD5DF"/><text x="757" y="338">Navigation par phase (UI)</text>
    <rect x="747" y="358" width="190" height="36" rx="6" fill="#FFFFFF" stroke="#CCD5DF"/><text x="757" y="380">Fiche détaillée d'un match</text>
    <rect x="747" y="400" width="190" height="36" rx="6" fill="#FFFFFF" stroke="#CCD5DF"/><text x="757" y="422">Classements de groupes</text>
    <rect x="747" y="442" width="190" height="36" rx="6" fill="#FFFFFF" stroke="#CCD5DF"/><text x="757" y="464">Mise en place du dépôt Git</text>
  </g>

  <!-- legend -->
  <g font-size="10" fill="#5C6B7C">
    <rect x="42" y="500" width="12" height="12" rx="3" fill="#E7F4EE"/><text x="60" y="510">Islem BEN HAMIDA (Conception &amp; Données/logique)</text>
    <rect x="430" y="500" width="12" height="12" rx="3" fill="#FDEEDC"/><text x="448" y="510">Ryan CHAIBAT (Front-end &amp; Scrum Master/QA)</text>
  </g>
</svg>
